<?xml version="1.0" encoding="utf-8"?>
<svg xmlns="http://www.w3.org/2000/svg">
<defs>




<symbol id="moonrise" viewBox="0 0 28.0566 25.6934">
 <g>
  <rect height="25.6934" opacity="0" width="28.0566" x="0" y="0"/>
  <path d="M11.0352 8.0957C10.7422 8.80859 10.5371 9.83398 10.5371 10.7324C10.5371 15.5664 13.3105 18.3301 18.125 18.3301C19.043 18.3301 20.0195 18.1445 20.6152 17.9395C21.1523 17.7832 21.5039 18.1445 21.2305 18.7207C20.7525 19.7477 20.0417 20.6918 19.1485 21.4648L16.5932 21.4648C17.5176 21.0329 18.3178 20.4054 18.9453 19.6484C18.7012 19.6973 18.4277 19.7363 18.125 19.7363C12.5293 19.7363 9.14062 16.3379 9.14062 10.7324C9.14062 10.3711 9.17969 10.0195 9.25781 9.66797C7.73438 10.8789 6.61133 12.8125 6.61133 15.1074C6.61133 17.924 8.28452 20.3572 10.6914 21.4648L8.12657 21.4648C6.34115 19.9267 5.21484 17.6483 5.21484 15.1074C5.21484 11.5918 7.40234 8.62305 10.2832 7.38281C10.8496 7.12891 11.2695 7.48047 11.0352 8.0957Z" fill="currentColor"/>
  <path d="M2.1875 23.0273L25.5176 23.0273C25.9766 23.0273 26.3672 22.6758 26.3672 22.2461C26.3672 21.8164 25.9766 21.4648 25.5176 21.4648L2.1875 21.4648C1.71875 21.4648 1.33789 21.8164 1.33789 22.2461C1.33789 22.6758 1.71875 23.0273 2.1875 23.0273Z" fill="currentColor"/>
  <path d="M18.7793 3.78906L20.1855 5.44922L21.416 6.68945C21.5527 6.82617 21.748 6.91406 21.9336 6.91406C22.3242 6.91406 22.5977 6.64062 22.5977 6.25977C22.5977 6.05469 22.5293 5.89844 22.3633 5.74219L19.3164 2.90039C19.1113 2.71484 18.9746 2.64648 18.7891 2.64648C18.6133 2.64648 18.4668 2.71484 18.2617 2.90039L15.2148 5.74219C15.0488 5.89844 14.9805 6.05469 14.9805 6.25977C14.9805 6.64062 15.2539 6.91406 15.6445 6.91406C15.8398 6.91406 16.0254 6.82617 16.1719 6.68945L17.4902 5.35156ZM19.4434 4.15039C19.4141 3.78906 19.1504 3.48633 18.7793 3.48633C18.418 3.48633 18.1445 3.78906 18.1152 4.15039L17.9883 6.09375L17.9883 11.0254C17.9883 11.5039 18.3496 11.8945 18.7793 11.8945C19.209 11.8945 19.5801 11.5039 19.5801 11.0254L19.5801 6.09375Z" fill="currentColor"/>
 </g>
 </symbol>

<symbol id="moonset" viewBox="0 0 28.0566 25.6934">
 <g>
  <rect height="25.6934" opacity="0" width="28.0566" x="0" y="0"/>
  <path d="M11.0352 8.0957C10.7422 8.80859 10.5371 9.83398 10.5371 10.7324C10.5371 15.5664 13.3105 18.3301 18.125 18.3301C19.043 18.3301 20.0195 18.1445 20.6152 17.9395C21.1523 17.7832 21.5039 18.1445 21.2305 18.7207C20.7525 19.7477 20.0417 20.6918 19.1485 21.4648L16.5932 21.4648C17.5176 21.0329 18.3178 20.4054 18.9453 19.6484C18.7012 19.6973 18.4277 19.7363 18.125 19.7363C12.5293 19.7363 9.14062 16.3379 9.14062 10.7324C9.14062 10.3711 9.17969 10.0195 9.25781 9.66797C7.73438 10.8789 6.61133 12.8125 6.61133 15.1074C6.61133 17.924 8.28452 20.3572 10.6914 21.4648L8.12657 21.4648C6.34115 19.9267 5.21484 17.6483 5.21484 15.1074C5.21484 11.5918 7.40234 8.62305 10.2832 7.38281C10.8496 7.12891 11.2695 7.48047 11.0352 8.0957Z" fill="currentColor"/>
  <path d="M2.1875 23.0273L25.5176 23.0273C25.9766 23.0273 26.3672 22.6758 26.3672 22.2461C26.3672 21.8164 25.9766 21.4648 25.5176 21.4648L2.1875 21.4648C1.71875 21.4648 1.33789 21.8164 1.33789 22.2461C1.33789 22.6758 1.71875 23.0273 2.1875 23.0273Z" fill="currentColor"/>
  <path d="M18.7793 10.752L17.4902 9.17969L16.1719 7.85156C16.0254 7.71484 15.8398 7.62695 15.6445 7.62695C15.2539 7.62695 14.9805 7.90039 14.9805 8.28125C14.9805 8.48633 15.0488 8.64258 15.2148 8.79883L18.2617 11.6406C18.4668 11.8262 18.6133 11.8945 18.7891 11.8945C18.9746 11.8945 19.1113 11.8262 19.3164 11.6406L22.3633 8.79883C22.5293 8.64258 22.5977 8.48633 22.5977 8.28125C22.5977 7.90039 22.3242 7.62695 21.9336 7.62695C21.748 7.62695 21.5527 7.71484 21.416 7.85156L20.1855 9.08203ZM19.4434 10.3906L19.5801 8.44727L19.5801 3.51562C19.5801 3.03711 19.209 2.64648 18.7793 2.64648C18.3496 2.64648 17.9883 3.03711 17.9883 3.51562L17.9883 8.44727L18.1152 10.3906C18.1445 10.752 18.418 11.0449 18.7793 11.0449C19.1504 11.0449 19.4141 10.752 19.4434 10.3906Z" fill="currentColor"/>
 </g>
</symbol>




<symbol id="set" viewBox="0 0 640 640"><path fill="currentColor" d="M488 576C501.3 576 512 565.3 512 552C512 538.7 501.3 528 488 528L152 528C138.7 528 128 538.7 128 552C128 565.3 138.7 576 152 576L488 576zM303 441C312.4 450.4 327.6 450.4 336.9 441L473 305C482.4 295.6 482.4 280.4 473 271.1C463.6 261.8 448.4 261.7 439.1 271.1L344.1 366.1L344.1 88C344.1 74.7 333.4 64 320.1 64C306.8 64 296.1 74.7 296.1 88L296.1 366.1L201.1 271.1C191.7 261.7 176.5 261.7 167.2 271.1C157.9 280.5 157.8 295.7 167.2 305L303 441z"/></symbol>



<symbol id="star-black" viewBox="0 0 640 640"><path fill="currentColor" d="M342.9 80.7C339.7 70.8 330.5 64 320 64C309.5 64 300.3 70.8 297.1 80.7L246.5 240L88 240C77.7 240 68.6 246.5 65.3 256.2C62 265.9 65.2 276.6 73.3 282.9L204.1 384.7L153.1 544.7C149.9 554.7 153.6 565.7 162.2 571.7C170.8 577.7 182.4 577.4 190.7 571L320 470.4L449.3 570.9C457.6 577.4 469.1 577.7 477.8 571.6C486.5 565.5 490.1 554.7 486.9 544.6L435.9 384.7L566.7 282.9C574.8 276.6 578 265.9 574.7 256.2C571.4 246.5 562.3 240 552 240L393.5 240L342.8 80.7z"/></symbol>

<symbol id="star-white" viewBox="0 0 640 640"><path fill="currentColor" d="M320 64C330.5 64 339.7 70.8 342.9 80.7L393.6 240L552 240C562.3 240 571.4 246.5 574.7 256.2C578 265.9 574.8 276.6 566.7 282.9L435.9 384.7L486.9 544.7C490.1 554.7 486.4 565.7 477.8 571.7C469.2 577.7 457.6 577.4 449.3 571L320 470.4L190.7 570.9C182.4 577.4 170.9 577.7 162.2 571.6C153.5 565.5 149.9 554.7 153.1 544.6L204.1 384.7L73.3 282.9C65.2 276.6 62 265.9 65.3 256.2C68.6 246.5 77.7 240 88 240L246.5 240L297.2 80.7C300.3 70.8 309.6 64 320 64zM320 167.2L286.9 271.3C283.7 281.3 274.5 288 264 288L158 288L246.7 357.1C254.6 363.3 257.9 373.7 254.8 383.3L222.3 485.6L305.2 421.1C313.9 414.4 326 414.4 334.7 421.1L417.6 485.6L385.1 383.3C382.1 373.7 385.3 363.3 393.2 357.1L482.1 288L376 288C365.5 288 356.3 281.2 353.1 271.3L320 167.2z"/></symbol>

<symbol id="moon-new" viewBox="0 0 101.602 101.651"><path fill="currentColor" d="M50.8008 101.602C78.8408 101.602 101.602 78.8408 101.602 50.8008C101.602 22.7607 78.8408 0 50.8008 0C22.7607 0 0 22.7607 0 50.8008C0 78.8408 22.7607 101.602 50.8008 101.602ZM50.8008 93.1348C27.3926 93.1348 8.4668 74.209 8.4668 50.8008C8.4668 27.3926 27.3926 8.4668 50.8008 8.4668C74.209 8.4668 93.1348 27.3926 93.1348 50.8008C93.1348 74.209 74.209 93.1348 50.8008 93.1348Z"/></symbol>

<symbol id="moon-full" viewBox="0 0 101.602 101.651"><path fill="currentColor" d="M50.8008 101.602C78.8408 101.602 101.602 78.791 101.602 50.8008C101.602 22.7607 78.8408 0 50.8008 0C22.8105 0 0 22.7607 0 50.8008C0 78.791 22.8105 101.602 50.8008 101.602Z"/></symbol>

<symbol id="moon-waxing-gibbous" viewBox="0 0 101.602 101.651"><path fill="currentColor" d="M8.4668 50.8008C8.5166 27.2432 27.293 8.4668 50.8506 8.4668C52.4443 8.4668 54.0381 8.56641 55.582 8.76562C41.5371 17.1826 33.668 32.0244 33.668 50.8008C33.668 69.5273 41.4873 84.3193 55.4326 92.8359C53.8887 93.0352 52.3447 93.1348 50.8008 93.1348C27.2432 93.1348 8.41699 74.3584 8.4668 50.8008ZM50.8008 101.602C78.8408 101.602 101.602 78.791 101.602 50.8008C101.602 22.7607 78.8408 0 50.8008 0C22.8105 0 0 22.7607 0 50.8008C0 78.791 22.8105 101.602 50.8008 101.602Z"/></symbol>

<symbol id="moon-first-quarter" viewBox="0 0 101.602 101.651"><path fill="currentColor" d="M50.8008 93.3838C27.3926 93.3838 8.4668 74.458 8.4668 51.0498C8.4668 27.6416 27.3926 8.71582 50.8008 8.71582ZM50.8008 101.602C78.8408 101.602 101.602 78.791 101.602 50.8008C101.602 22.7607 78.8408 0 50.8008 0C22.8105 0 0 22.7607 0 50.8008C0 78.791 22.8105 101.602 50.8008 101.602Z"/></symbol>

<symbol id="moon-waxing-crescent" viewBox="0 0 101.602 101.651"><path fill="currentColor" d="M68.1826 50.8008C68.1826 69.5273 59.9648 84.7676 46.1689 92.8359C24.9023 90.5947 8.41699 72.7148 8.4668 50.8008C8.5166 28.9863 24.8027 11.1562 45.9199 8.76562C59.8652 16.9834 68.1826 32.3232 68.1826 50.8008ZM50.8008 101.602C78.8408 101.602 101.602 78.791 101.602 50.8008C101.602 22.7607 78.8408 0 50.8008 0C22.8105 0 0 22.7607 0 50.8008C0 78.791 22.8105 101.602 50.8008 101.602Z"/></symbol>

<symbol id="moon-waning-crescent" viewBox="0 0 101.602 101.651"><path fill="currentColor" d="M33.4189 50.8008C33.4189 32.3232 41.7363 16.9834 55.7314 8.76562C76.7988 11.1562 93.085 28.9863 93.1348 50.8008C93.1846 72.7148 76.6992 90.5947 55.4326 92.8359C41.6367 84.7676 33.4189 69.5273 33.4189 50.8008ZM50.8008 101.602C78.8408 101.602 101.602 78.791 101.602 50.8008C101.602 22.7607 78.8408 0 50.8008 0C22.8105 0 0 22.7607 0 50.8008C0 78.791 22.8105 101.602 50.8008 101.602Z"/></symbol>

<symbol id="moon-third-quarter" viewBox="0 0 101.602 101.651"><path fill="currentColor" d="M50.8008 93.3838L50.8008 8.71582C74.209 8.71582 93.1348 27.6416 93.1348 51.0498C93.1348 74.458 74.209 93.3838 50.8008 93.3838ZM50.8008 101.602C78.8408 101.602 101.602 78.791 101.602 50.8008C101.602 22.7607 78.8408 0 50.8008 0C22.8105 0 0 22.7607 0 50.8008C0 78.791 22.8105 101.602 50.8008 101.602Z"/></symbol>

<symbol id="moon-waning-gibbous" viewBox="0 0 101.602 101.651"><path fill="currentColor" d="M93.1348 50.8008C93.1846 74.3584 74.3584 93.1348 50.8008 93.1348C49.2568 93.1348 47.7129 93.0352 46.1689 92.8359C60.1143 84.3193 67.9336 69.5273 67.9336 50.8008C67.9336 32.0244 60.0645 17.1826 46.0195 8.76562C47.6133 8.56641 49.1572 8.4668 50.751 8.4668C74.3086 8.4668 93.085 27.2432 93.1348 50.8008ZM50.8008 101.602C78.8408 101.602 101.602 78.791 101.602 50.8008C101.602 22.7607 78.8408 0 50.8008 0C22.8105 0 0 22.7607 0 50.8008C0 78.791 22.8105 101.602 50.8008 101.602Z"/></symbol>

<symbol id="sunrise" viewBox="0 0 138.477 128.467">
 <g>
  <rect height="128.467" opacity="0" width="138.477" x="0" y="0"/>
  <path d="M95.9473 91.8457C95.9473 97.5842 94.0765 102.945 90.8991 107.324L79.931 107.324C84.849 103.918 88.0859 98.2352 88.0859 91.8457C88.0859 81.4941 79.5898 72.9492 69.2383 72.9492C58.8867 72.9492 50.3906 81.4941 50.3906 91.8457C50.3906 98.2352 53.6276 103.918 58.5455 107.324L47.5775 107.324C44.4001 102.945 42.5293 97.5842 42.5293 91.8457C42.5293 77.1973 54.6387 65.0879 69.2383 65.0879C83.8379 65.0879 95.9473 77.1973 95.9473 91.8457ZM33.6426 90.5762C33.6914 92.7734 31.7871 94.5312 29.248 94.5312L17.2363 94.5312C14.7461 94.5312 12.8906 92.7734 12.8906 90.5762C12.8906 88.3789 14.7461 86.6211 17.2363 86.6211L29.248 86.6211C31.7871 86.6211 33.5938 88.3789 33.6426 90.5762ZM125.586 90.5762C125.586 92.7734 123.779 94.5312 121.24 94.5312L109.229 94.5312C106.689 94.5312 104.883 92.7734 104.834 90.5762C104.785 88.3789 106.689 86.6211 109.229 86.6211L121.24 86.6211C123.779 86.6211 125.586 88.3789 125.586 90.5762ZM35.3027 52.2461L43.7988 60.7422C45.5566 62.5 45.5566 65.0879 44.043 66.6504C42.5293 68.2129 39.9414 68.1641 38.1348 66.3574L29.6387 57.8613C27.832 56.0547 27.832 53.5156 29.3945 52.002C30.957 50.4883 33.4473 50.4395 35.3027 52.2461ZM109.082 52.002C110.596 53.5645 110.645 56.0547 108.838 57.8613L100.342 66.3574C98.5352 68.1641 95.9961 68.1641 94.4336 66.6504C92.8711 65.1367 92.9199 62.5 94.6777 60.7422L103.223 52.2461C105.029 50.4395 107.568 50.4395 109.082 52.002Z" fill="currentColor"/>
  <path d="M10.9375 115.137L127.588 115.137C129.883 115.137 131.836 113.379 131.836 111.23C131.836 109.082 129.883 107.324 127.588 107.324L10.9375 107.324C8.59375 107.324 6.68945 109.082 6.68945 111.23C6.68945 113.379 8.59375 115.137 10.9375 115.137Z" fill="currentColor"/>
  <path d="M69.2383 18.9453L76.2695 27.2461L82.4219 33.4473C83.1055 34.1309 84.0332 34.5703 85.0098 34.5703C86.9629 34.5703 88.3301 33.2031 88.3301 31.2988C88.3301 30.2734 87.9883 29.4922 87.1582 28.7109L71.9238 14.502C70.8984 13.5742 70.166 13.2324 69.2871 13.2324C68.4082 13.2324 67.6758 13.5742 66.6504 14.502L51.416 28.7109C50.5859 29.4922 50.2441 30.2734 50.2441 31.2988C50.2441 33.2031 51.6113 34.5703 53.5645 34.5703C54.541 34.5703 55.4688 34.1309 56.1523 33.4473L62.793 26.7578ZM72.5586 20.752C72.4121 18.9453 71.0938 17.4316 69.2383 17.4316C67.4316 17.4316 66.0645 18.9453 65.918 20.752L65.2832 30.4688L65.2832 48.7793C65.2832 51.1719 67.0898 53.0762 69.2383 53.0762C71.3867 53.0762 73.2422 51.1719 73.2422 48.7793L73.2422 30.4688Z" fill="currentColor"/>
 </g>
</symbol>

<symbol id="sunset" viewBox="0 0 138.477 128.467">
 <g>
  <rect height="128.467" opacity="0" width="138.477" x="0" y="0"/>
  <path d="M95.9473 91.8457C95.9473 97.5842 94.0765 102.945 90.8991 107.324L79.931 107.324C84.849 103.918 88.0859 98.2352 88.0859 91.8457C88.0859 81.4941 79.5898 72.9492 69.2383 72.9492C58.8867 72.9492 50.3906 81.4941 50.3906 91.8457C50.3906 98.2352 53.6276 103.918 58.5455 107.324L47.5775 107.324C44.4001 102.945 42.5293 97.5842 42.5293 91.8457C42.5293 77.1973 54.6387 65.0879 69.2383 65.0879C83.8379 65.0879 95.9473 77.1973 95.9473 91.8457ZM33.6426 90.5762C33.6914 92.7734 31.7871 94.5312 29.248 94.5312L17.2363 94.5312C14.7461 94.5312 12.8906 92.7734 12.8906 90.5762C12.8906 88.3789 14.7461 86.6211 17.2363 86.6211L29.248 86.6211C31.7871 86.6211 33.5938 88.3789 33.6426 90.5762ZM125.586 90.5762C125.586 92.7734 123.779 94.5312 121.24 94.5312L109.229 94.5312C106.689 94.5312 104.883 92.7734 104.834 90.5762C104.785 88.3789 106.689 86.6211 109.229 86.6211L121.24 86.6211C123.779 86.6211 125.586 88.3789 125.586 90.5762ZM35.3027 52.2461L43.7988 60.7422C45.5566 62.5 45.5566 65.0879 44.043 66.6504C42.5293 68.2129 39.9414 68.1641 38.1348 66.3574L29.6387 57.8613C27.832 56.0547 27.832 53.5156 29.3945 52.002C30.957 50.4883 33.4473 50.4395 35.3027 52.2461ZM109.082 52.002C110.596 53.5645 110.645 56.0547 108.838 57.8613L100.342 66.3574C98.5352 68.1641 95.9961 68.1641 94.4336 66.6504C92.8711 65.1367 92.9199 62.5 94.6777 60.7422L103.223 52.2461C105.029 50.4395 107.568 50.4395 109.082 52.002Z" fill="currentColor"/>
  <path d="M10.9375 115.137L127.588 115.137C129.883 115.137 131.836 113.379 131.836 111.23C131.836 109.082 129.883 107.324 127.588 107.324L10.9375 107.324C8.59375 107.324 6.68945 109.082 6.68945 111.23C6.68945 113.379 8.59375 115.137 10.9375 115.137Z" fill="currentColor"/>
  <path d="M69.2383 47.4121L62.793 39.5508L56.1523 32.9102C55.4688 32.1777 54.541 31.7871 53.5645 31.7871C51.6113 31.7871 50.2441 33.1055 50.2441 35.0586C50.2441 36.084 50.5859 36.8652 51.416 37.5977L66.6504 51.8066C67.6758 52.7344 68.4082 53.0762 69.2871 53.0762C70.166 53.0762 70.8984 52.7344 71.9238 51.8066L87.1582 37.5977C87.9883 36.8652 88.3301 36.084 88.3301 35.0586C88.3301 33.1055 86.9629 31.7871 85.0098 31.7871C84.0332 31.7871 83.1055 32.1777 82.4219 32.9102L76.2695 39.0625ZM72.5586 45.5566L73.2422 35.8398L73.2422 17.5781C73.2422 15.1855 71.3867 13.2324 69.2383 13.2324C67.0898 13.2324 65.2832 15.1855 65.2832 17.5781L65.2832 35.8398L65.918 45.5566C66.0645 47.4121 67.4316 48.877 69.2383 48.877C71.0938 48.877 72.4121 47.4121 72.5586 45.5566Z" fill="currentColor"/>
 </g>
</symbol>

<symbol id="location" viewBox="0 0 99.5449 92.3916"><path fill="currentColor" d="M4.16701 37.3823C-2.57128 40.5073-0.715807 49.5405 6.70607 49.5894L42.3018 49.7359C42.8877 49.7359 43.0342 49.8823 43.0342 50.4683L43.1318 85.771C43.1807 93.4859 52.3604 94.853 55.6318 87.773L91.7158 10.1851C95.0361 2.95851 89.3721-2.16845 82.1943 1.2007ZM12.6631 41.9722C12.4678 41.9722 12.419 41.7769 12.6631 41.6792L82.8291 9.5503C83.1709 9.40382 83.3174 9.50148 83.1709 9.8921L50.8467 80.0093C50.7979 80.2046 50.6026 80.1558 50.6026 79.9605L50.8467 45.439C50.8467 43.2905 49.333 41.7769 47.1358 41.7769Z"/></symbol>

<symbol id="current-location" viewBox="0 0 95.6055 95.6543"><path fill="currentColor" d="M3.90625 31.1523C6.49414 31.1523 7.86133 29.6875 7.86133 27.1484L7.86133 15.625C7.86133 10.5469 10.5469 7.95898 15.4297 7.95898L27.2461 7.95898C29.834 7.95898 31.25 6.54297 31.25 4.00391C31.25 1.46484 29.834 0.0976562 27.2461 0.0976562L15.332 0.0976562C5.12695 0.0976562 0 5.12695 0 15.1855L0 27.1484C0 29.6875 1.41602 31.1523 3.90625 31.1523ZM91.6504 31.1523C94.2383 31.1523 95.6055 29.6875 95.6055 27.1484L95.6055 15.1855C95.6055 5.12695 90.4785 0.0976562 80.2734 0.0976562L68.3105 0.0976562C65.7715 0.0976562 64.3555 1.46484 64.3555 4.00391C64.3555 6.54297 65.7715 7.95898 68.3105 7.95898L80.127 7.95898C84.9609 7.95898 87.7441 10.5469 87.7441 15.625L87.7441 27.1484C87.7441 29.6875 89.1602 31.1523 91.6504 31.1523ZM15.332 95.6543L27.2461 95.6543C29.834 95.6543 31.25 94.2383 31.25 91.748C31.25 89.209 29.834 87.793 27.2461 87.793L15.4297 87.793C10.5469 87.793 7.86133 85.2051 7.86133 80.127L7.86133 68.6035C7.86133 66.0156 6.44531 64.5996 3.90625 64.5996C1.36719 64.5996 0 66.0156 0 68.6035L0 80.5176C0 90.625 5.12695 95.6543 15.332 95.6543ZM68.3105 95.6543L80.2734 95.6543C90.4785 95.6543 95.6055 90.5762 95.6055 80.5176L95.6055 68.6035C95.6055 66.0156 94.1895 64.5996 91.6504 64.5996C89.1113 64.5996 87.7441 66.0156 87.7441 68.6035L87.7441 80.127C87.7441 85.2051 84.9609 87.793 80.127 87.793L68.3105 87.793C65.7715 87.793 64.3555 89.209 64.3555 91.748C64.3555 94.2383 65.7715 95.6543 68.3105 95.6543Z"/><path fill="currentColor" d="M20.8496 53.2227L42.3828 53.2715L42.4316 74.3164C42.4316 77.7832 43.9941 79.6387 46.875 79.6387C48.877 79.6387 50.5371 78.3203 51.709 75.7324L73.4375 29.0039C73.9746 27.7832 74.2676 26.6602 74.2676 25.6836C74.2676 23.2422 72.4609 21.3867 69.9707 21.3867C68.9941 21.3867 67.8711 21.7285 66.6992 22.2656L19.5312 44.043C17.2363 45.1172 16.0156 46.7773 16.0156 48.7793C16.0156 51.6602 17.7246 53.2227 20.8496 53.2227ZM28.0762 46.9238L66.4062 29.2969L48.7305 67.7246L48.8281 49.8047C48.8281 48.0957 47.6074 46.8262 45.8008 46.8262Z"/></symbol>

<symbol id="telescope" viewBox="0 0 640 640"><path fill="currentColor" d="M479.1 99.7L575.1 266L485.9 317.5L389.9 151.2L479.1 99.7zM376 191.2L441.8 305.2L403.9 325.7C389.8 303 364.6 288 336 288C291.8 288 256 323.8 256 368C256 380 258.7 391.5 263.4 401.7L166.1 454.3L111.3 359.3L376 191.2zM457.7 332.7L458.2 333.5C467 348.8 486.6 354.1 501.9 345.2L591.1 293.7C606.4 284.9 611.6 265.3 602.8 250L506.8 83.7C498 68.4 478.4 63.2 463.1 72L373.9 123.5C359.8 131.7 354.2 149 360.4 163.6L92 334.1C79 342.4 74.8 359.4 82.5 372.8L140.1 472.6C147.9 486.1 165 491 178.7 483.5L278.4 429.6L225.2 553.7C221.7 561.8 225.5 571.2 233.6 574.7C241.7 578.2 251.1 574.4 254.6 566.3L307.5 442.8C316.3 446.1 325.9 448 335.9 448C345.9 448 355.5 446.2 364.3 442.8L417.2 566.3C420.7 574.4 430.1 578.2 438.2 574.7C446.3 571.2 450.1 561.8 446.6 553.7L391.6 425.4C406.6 410.9 415.9 390.5 415.9 368C415.9 363.8 415.6 359.7 415 355.7L457.6 332.6zM336 320C362.5 320 384 341.5 384 368C384 394.5 362.5 416 336 416C309.5 416 288 394.5 288 368C288 341.5 309.5 320 336 320zM61.9 416.1C57.5 408.4 47.7 405.8 40.1 410.1C32.5 414.4 29.8 424.3 34.1 431.9L66.1 487.9C70.5 495.6 80.3 498.2 87.9 493.9C95.5 489.6 98.2 479.7 93.9 472.1L61.9 416.1z"/></symbol>

<symbol id="galaxy-rise" viewBox="0 0 28.0566 25.6934"><path fill="currentColor" d="M2.1875 23.0273L25.5176 23.0273C25.9766 23.0273 26.3672 22.6758 26.3672 22.2461C26.3672 21.8164 25.9766 21.4648 25.5176 21.4648L2.1875 21.4648C1.71875 21.4648 1.33789 21.8164 1.33789 22.2461C1.33789 22.6758 1.71875 23.0273 2.1875 23.0273Z"/><path fill="currentColor" d="m 22.7793,3.78906 1.4062,1.66016 1.2305,1.24023 c 0.1367,0.13672 0.332,0.22461 0.5176,0.22461 0.3906,0 0.6641,-0.27344 0.6641,-0.65429 0,-0.20508 -0.0684,-0.36133 -0.2344,-0.51758 L 23.3164,2.90039 C 23.1113,2.71484 22.9746,2.64648 22.7891,2.64648 c -0.1758,0 -0.3223,0.06836 -0.5274,0.25391 l -3.0469,2.8418 c -0.166,0.15625 -0.2343,0.3125 -0.2343,0.51758 0,0.38085 0.2734,0.65429 0.664,0.65429 0.1953,0 0.3809,-0.08789 0.5274,-0.22461 l 1.3183,-1.33789 z m 0.6641,0.36133 c -0.0293,-0.36133 -0.293,-0.66406 -0.6641,-0.66406 -0.3613,0 -0.6348,0.30273 -0.6641,0.66406 l -0.1269,1.94336 v 4.93165 c 0,0.4785 0.3613,0.8691 0.791,0.8691 0.4297,0 0.8008,-0.3906 0.8008,-0.8691 V 6.09375 Z"/><path fill="currentColor" d="m 9.557764,12.903739 c 0,-2.549114 2.619937,-4.6181807 5.847729,-4.6181807 h 0.492441 c -1.419613,0.8264116 -2.392953,2.0234927 -2.773825,3.3572957 -0.05386,0.182297 0.03462,0.373709 0.223138,0.489163 0.188512,0.115455 0.442427,0.136723 0.657869,0.05165 0.792521,-0.315981 1.68507,-0.49524 2.635326,-0.49524 3.227793,0 5.847729,2.069067 5.847729,4.618181 v 0.3889 C 21.441735,15.574384 19.925942,14.8057 18.237025,14.50491 c -0.230831,-0.04254 -0.473204,0.02735 -0.623245,0.17622 -0.15004,0.148876 -0.173123,0.349402 -0.0654,0.519545 0.400108,0.625886 0.627093,1.330766 0.627093,2.08122 0,2.549114 -2.619938,4.618181 -5.84773,4.618181 h -0.49244 c 1.419613,-0.82641 2.392952,-2.023492 2.773824,-3.357295 0.05386,-0.182297 -0.03462,-0.373708 -0.223137,-0.492201 -0.188512,-0.118493 -0.442427,-0.136723 -0.657869,-0.05165 -0.792522,0.315981 -1.68507,0.495239 -2.635326,0.495239 -3.2277927,0 -5.8477294,-2.069066 -5.8477294,-4.618181 v -0.388899 c 1.0464358,1.121124 2.5622288,1.889808 4.2511454,2.190597 0.2308314,0.04254 0.4732044,-0.02735 0.619398,-0.17622 0.146193,-0.148873 0.173123,-0.3494 0.0654,-0.519543 C 9.7847483,14.359074 9.557764,13.654194 9.557764,12.903739 Z m 5.847729,-5.5904291 c -3.908745,0 -7.0788299,2.50354 -7.0788299,5.5904291 0,0.522584 0.092333,1.029976 0.261609,1.510024 C 7.6534048,14.076514 6.830106,13.550892 6.2107084,12.876395 L 5.8683085,12.508763 c -0.1923595,-0.209641 -0.5001348,-0.33421 -0.8271459,-0.33421 -0.565537,0 -1.0233527,0.361555 -1.0233527,0.808181 v 0.893254 c 0,3.086889 3.1700848,5.590429 7.0788301,5.590429 0.661717,0 1.304198,-0.07292 1.912054,-0.206603 -0.427039,0.738302 -1.092602,1.388492 -1.946679,1.877655 v 0 l -0.469357,0.270407 c -0.265456,0.151914 -0.423191,0.394976 -0.423191,0.653229 0,0.446627 0.457816,0.808182 1.023353,0.808182 h 1.131074 c 3.908745,0 7.07883,-2.50354 7.07883,-5.590429 0,-0.522584 -0.09233,-1.029976 -0.261609,-1.510024 0.934868,0.337249 1.758166,0.862871 2.377564,1.537368 l 0.3424,0.37067 c 0.192359,0.209641 0.500135,0.33421 0.827146,0.33421 0.565537,0 1.023353,-0.361554 1.023353,-0.808181 v -0.893253 c 0,-3.08689 -3.170085,-5.59043 -7.078831,-5.59043 -0.661717,0 -1.304198,0.07292 -1.912054,0.206603 0.427039,-0.738301 1.092602,-1.3884921 1.946679,-1.8776551 l 0.469357,-0.273445 c 0.265456,-0.151914 0.423191,-0.394976 0.423191,-0.6532292 0,-0.4466269 -0.457816,-0.8081818 -1.023352,-0.8081818 z m -1.538876,9.7224861 c 1.358058,0 2.462202,-0.871986 2.462202,-1.944497 0,-1.072512 -1.104144,-1.944498 -2.462202,-1.944498 -1.358058,0 -2.462202,0.871986 -2.462202,1.944498 0,1.072511 1.104144,1.944497 2.462202,1.944497 z m -1.231101,-1.944497 c 0,-0.537775 0.550149,-0.972249 1.231101,-0.972249 0.680953,0 1.231101,0.434474 1.231101,0.972249 0,0.537774 -0.550148,0.972248 -1.231101,0.972248 -0.680952,0 -1.231101,-0.434474 -1.231101,-0.972248 z"/></symbol>

<symbol id="galaxy-set" viewBox="0 0 28.0566 25.6934"><path fill="currentColor" d="M2.1875 23.0273L25.5176 23.0273C25.9766 23.0273 26.3672 22.6758 26.3672 22.2461C26.3672 21.8164 25.9766 21.4648 25.5176 21.4648L2.1875 21.4648C1.71875 21.4648 1.33789 21.8164 1.33789 22.2461C1.33789 22.6758 1.71875 23.0273 2.1875 23.0273Z"/><path fill="currentColor" d="M 22.7793,10.75192 24.1855,9.09176 25.416,7.85153 c 0.1367,-0.13672 0.332,-0.22461 0.5176,-0.22461 0.3906,0 0.6641,0.27344 0.6641,0.65429 0,0.20508 -0.0684,0.36133 -0.2344,0.51758 l -3.0469,2.8418 c -0.2051,0.18555 -0.3418,0.25391 -0.5273,0.25391 -0.1758,0 -0.3223,-0.06836 -0.5274,-0.25391 l -3.0469,-2.8418 c -0.166,-0.15625 -0.2343,-0.3125 -0.2343,-0.51758 0,-0.38085 0.2734,-0.65429 0.664,-0.65429 0.1953,0 0.3809,0.08789 0.5274,0.22461 l 1.3183,1.33789 z m 0.6641,-0.36133 c -0.0293,0.36133 -0.293,0.66406 -0.6641,0.66406 -0.3613,0 -0.6348,-0.30273 -0.6641,-0.66406 L 21.9883,8.44723 V 3.51558 c 0,-0.4785 0.3613,-0.8691 0.791,-0.8691 0.4297,0 0.8008,0.3906 0.8008,0.8691 v 4.93165 z"/><path fill="currentColor" d="m 9.557764,12.903739 c 0,-2.549114 2.619937,-4.6181807 5.847729,-4.6181807 h 0.492441 c -1.419613,0.8264116 -2.392953,2.0234927 -2.773825,3.3572957 -0.05386,0.182297 0.03462,0.373709 0.223138,0.489163 0.188512,0.115455 0.442427,0.136723 0.657869,0.05165 0.792521,-0.315981 1.68507,-0.49524 2.635326,-0.49524 3.227793,0 5.847729,2.069067 5.847729,4.618181 v 0.3889 C 21.441735,15.574384 19.925942,14.8057 18.237025,14.50491 c -0.230831,-0.04254 -0.473204,0.02735 -0.623245,0.17622 -0.15004,0.148876 -0.173123,0.349402 -0.0654,0.519545 0.400108,0.625886 0.627093,1.330766 0.627093,2.08122 0,2.549114 -2.619938,4.618181 -5.84773,4.618181 h -0.49244 c 1.419613,-0.82641 2.392952,-2.023492 2.773824,-3.357295 0.05386,-0.182297 -0.03462,-0.373708 -0.223137,-0.492201 -0.188512,-0.118493 -0.442427,-0.136723 -0.657869,-0.05165 -0.792522,0.315981 -1.68507,0.495239 -2.635326,0.495239 -3.2277927,0 -5.8477294,-2.069066 -5.8477294,-4.618181 v -0.388899 c 1.0464358,1.121124 2.5622288,1.889808 4.2511454,2.190597 0.2308314,0.04254 0.4732044,-0.02735 0.619398,-0.17622 0.146193,-0.148873 0.173123,-0.3494 0.0654,-0.519543 C 9.7847483,14.359074 9.557764,13.654194 9.557764,12.903739 Z m 5.847729,-5.5904291 c -3.908745,0 -7.0788299,2.50354 -7.0788299,5.5904291 0,0.522584 0.092333,1.029976 0.261609,1.510024 C 7.6534048,14.076514 6.830106,13.550892 6.2107084,12.876395 L 5.8683085,12.508763 c -0.1923595,-0.209641 -0.5001348,-0.33421 -0.8271459,-0.33421 -0.565537,0 -1.0233527,0.361555 -1.0233527,0.808181 v 0.893254 c 0,3.086889 3.1700848,5.590429 7.0788301,5.590429 0.661717,0 1.304198,-0.07292 1.912054,-0.206603 -0.427039,0.738302 -1.092602,1.388492 -1.946679,1.877655 v 0 l -0.469357,0.270407 c -0.265456,0.151914 -0.423191,0.394976 -0.423191,0.653229 0,0.446627 0.457816,0.808182 1.023353,0.808182 h 1.131074 c 3.908745,0 7.07883,-2.50354 7.07883,-5.590429 0,-0.522584 -0.09233,-1.029976 -0.261609,-1.510024 0.934868,0.337249 1.758166,0.862871 2.377564,1.537368 l 0.3424,0.37067 c 0.192359,0.209641 0.500135,0.33421 0.827146,0.33421 0.565537,0 1.023353,-0.361554 1.023353,-0.808181 v -0.893253 c 0,-3.08689 -3.170085,-5.59043 -7.078831,-5.59043 -0.661717,0 -1.304198,0.07292 -1.912054,0.206603 0.427039,-0.738301 1.092602,-1.3884921 1.946679,-1.8776551 l 0.469357,-0.273445 c 0.265456,-0.151914 0.423191,-0.394976 0.423191,-0.6532292 0,-0.4466269 -0.457816,-0.8081818 -1.023352,-0.8081818 z m -1.538876,9.7224861 c 1.358058,0 2.462202,-0.871986 2.462202,-1.944497 0,-1.072512 -1.104144,-1.944498 -2.462202,-1.944498 -1.358058,0 -2.462202,0.871986 -2.462202,1.944498 0,1.072511 1.104144,1.944497 2.462202,1.944497 z m -1.231101,-1.944497 c 0,-0.537775 0.550149,-0.972249 1.231101,-0.972249 0.680953,0 1.231101,0.434474 1.231101,0.972249 0,0.537774 -0.550148,0.972248 -1.231101,0.972248 -0.680952,0 -1.231101,-0.434474 -1.231101,-0.972248 z"/></symbol>

<symbol id="apex" viewBox="0 0 28.0566 25.6934"><path fill="currentColor" d="M2.1875 23.0273L25.5176 23.0273C25.9766 23.0273 26.3672 22.6758 26.3672 22.2461C26.3672 21.8164 25.9766 21.4648 25.5176 21.4648L2.1875 21.4648C1.71875 21.4648 1.33789 21.8164 1.33789 22.2461C1.33789 22.6758 1.71875 23.0273 2.1875 23.0273Z"/><path fill="currentColor" fill-opacity="0.328358" d="m 14.950388,9.3538924 a 0.5960603,0.56326419 0 0 0 -0.607031,0.5520163 0.5960603,0.56326419 0 0 0 0.585918,0.5736313 l 0.03519,0.0017 0.02815,0.0017 0.102052,0.01164 0.130204,0.02162 0.163634,0.03492 0.08798,0.02162 0.09677,0.02494 0.102051,0.02993 0.10733,0.03325 0.110849,0.03492 a 0.5960603,0.56326419 0 0 0 0.763629,-0.33586 0.5960603,0.56326419 0 0 0 -0.355421,-0.7216119 l -0.007,-0.00333 -0.133723,-0.04323 -0.130204,-0.039905 -0.123166,-0.034917 -0.119646,-0.031591 -0.117888,-0.029928 -0.209381,-0.044892 -0.191787,-0.031591 -0.168913,-0.018289 -0.08621,-0.00499 z m 3.144247,1.2935806 a 0.5960603,0.56326419 0 0 0 -0.380055,0.239429 0.5960603,0.56326419 0 0 0 0.161875,0.781468 l 0.02991,0.01829 0.163635,0.109739 0.167153,0.116388 0.168913,0.121379 0.170673,0.126364 0.170672,0.134678 0.01935,0.01497 a 0.5960603,0.56326419 0 0 0 0.841046,-0.0582 0.5960603,0.56326419 0 0 0 -0.06334,-0.79477 l -0.02815,-0.02328 -0.190027,-0.14798 -0.188268,-0.14133 -0.186508,-0.134679 -0.186508,-0.12969 -0.184749,-0.121377 -0.03871,-0.02494 a 0.5960603,0.56326419 0 0 0 -0.446915,-0.08646 z m 2.348946,2.409252 a 0.5960603,0.56326419 0 0 0 -0.09325,0.791445 l 0.133722,0.157957 0.172433,0.211163 0.170673,0.219476 0.168913,0.227789 0.03695,0.04987 a 0.5960603,0.56326419 0 0 0 0.826971,0.152969 0.5960603,0.56326419 0 0 0 0.161875,-0.781469 l -0.04399,-0.06152 -0.18299,-0.246079 -0.184748,-0.237766 -0.188267,-0.229452 -0.140761,-0.166271 a 0.5960603,0.56326419 0 0 0 -0.837528,-0.08812 z m 2.01288,2.786685 a 0.5960603,0.56326419 0 0 0 -0.278002,0.75154 l 0.09853,0.192874 0.147799,0.305936 0.14428,0.315913 0.08093,0.184559 a 0.5960603,0.56326419 0 0 0 0.777703,0.305937 0.5960603,0.56326419 0 0 0 0.325511,-0.734913 l -0.08446,-0.194535 -0.154837,-0.335866 -0.158357,-0.325889 -0.102051,-0.202849 A 0.5960603,0.56326419 0 0 0 22.456448,15.84341 Z m 1.356583,3.124213 a 0.5960603,0.56326419 0 0 0 -0.411725,0.695008 l 0.06862,0.231115 0.110849,0.395723 0.105572,0.410688 a 0.5960603,0.56326419 0 0 0 0.721399,0.414011 0.5960603,0.56326419 0 0 0 0.438118,-0.680044 l -0.10909,-0.422325 -0.116128,-0.415675 -0.07214,-0.239429 a 0.5960603,0.56326419 0 0 0 -0.735475,-0.389072 z"/><path fill="currentColor" d="m 13.014927,9.3538924 -0.06334,0.00166 -0.08621,0.00499 -0.167154,0.018289 -0.191786,0.031591 -0.211141,0.044892 -0.116129,0.029928 -0.119646,0.031591 -0.124925,0.034917 -0.130204,0.039905 -0.133723,0.04323 -0.007,0.00333 a 0.5960603,0.56326419 0 0 0 -0.355421,0.7216116 0.5960603,0.56326419 0 0 0 0.765387,0.335866 l 0.10909,-0.03492 0.107329,-0.03325 0.102053,-0.02993 0.09677,-0.02494 0.08798,-0.02162 0.163634,-0.03492 0.131964,-0.02162 0.102051,-0.01164 0.0264,-0.0017 0.03694,-0.0017 A 0.5960603,0.56326419 0 0 0 13.621958,9.9059087 0.5960603,0.56326419 0 0 0 13.014927,9.3538924 Z M 9.870681,10.647473 a 0.5960603,0.56326419 0 0 0 -0.446916,0.08646 l -0.03871,0.02494 -0.184748,0.121377 -0.184749,0.12969 -0.1882675,0.134679 -0.1882677,0.14133 -0.1900272,0.14798 -0.028152,0.02328 a 0.5960603,0.56326419 0 0 0 -0.063342,0.794771 0.5960603,0.56326419 0 0 0 0.8410464,0.0582 l 0.01935,-0.01496 0.170672,-0.13468 0.170673,-0.126364 0.168913,-0.121378 0.167153,-0.116388 0.165394,-0.109739 0.02991,-0.01829 a 0.5960603,0.56326419 0 0 0 0.161875,-0.781479 0.5960603,0.56326419 0 0 0 -0.381814,-0.239429 z m -2.3489468,2.409252 a 0.5960603,0.56326419 0 0 0 -0.8375271,0.08812 l -0.1407608,0.166271 -0.1865082,0.229452 -0.1847486,0.237766 -0.1847486,0.246079 -0.042228,0.06152 a 0.5960603,0.56326419 0 0 0 0.161875,0.781467 0.5960603,0.56326419 0 0 0 0.82697,-0.152969 l 0.03695,-0.04988 0.168913,-0.227789 0.1706725,-0.219476 0.1706725,-0.211163 0.1337229,-0.157957 A 0.5960603,0.56326419 0 0 0 7.5217338,13.056722 Z M 5.0531407,15.820132 A 0.5960603,0.56326419 0 0 0 4.7135551,16.106117 L 4.609744,16.308966 4.451388,16.634855 4.2983106,16.970721 4.2138536,17.165256 A 0.5960603,0.56326419 0 0 0 4.539363,17.900169 0.5960603,0.56326419 0 0 0 5.3170668,17.594232 L 5.3962453,17.409673 5.5405252,17.09376 5.6883241,16.787824 5.7868571,16.59495 A 0.5960603,0.56326419 0 0 0 5.508854,15.84341 0.5960603,0.56326419 0 0 0 5.0531407,15.820132 Z m -0.9008695,3.147491 a 0.5960603,0.56326419 0 0 0 -0.7354755,0.389072 l -0.07214,0.239429 -0.1161278,0.415675 -0.1073301,0.422325 a 0.5960603,0.56326419 0 0 0 0.4381182,0.680044 0.5960603,0.56326419 0 0 0 0.7196398,-0.414011 l 0.1055707,-0.410688 0.1108492,-0.395723 0.068621,-0.231115 A 0.5960603,0.56326419 0 0 0 4.1522712,18.967623 Z"/></symbol>

<symbol id="night-set" viewBox="0 0 28.0566 25.6934">
  <g>
    <rect height="25.6934" opacity="0" width="28.0566" x="0" y="0"/>
    <path d="M2.1875 23.0273L25.5176 23.0273C25.9766 23.0273 26.3672 22.6758 26.3672 22.2461C26.3672 21.8164 25.9766 21.4648 25.5176 21.4648L2.1875 21.4648C1.71875 21.4648 1.33789 21.8164 1.33789 22.2461C1.33789 22.6758 1.71875 23.0273 2.1875 23.0273Z" fill="currentColor"/>
    <path d="M 20.7793,10.75192 22.1855,9.09176 23.416,7.85153 c 0.1367,-0.13672 0.332,-0.22461 0.5176,-0.22461 0.3906,0 0.6641,0.27344 0.6641,0.65429 0,0.20508 -0.0684,0.36133 -0.2344,0.51758 l -3.0469,2.8418 c -0.2051,0.18555 -0.3418,0.25391 -0.5273,0.25391 -0.1758,0 -0.3223,-0.06836 -0.5274,-0.25391 l -3.0469,-2.8418 c -0.166,-0.15625 -0.2343,-0.3125 -0.2343,-0.51758 0,-0.38085 0.2734,-0.65429 0.664,-0.65429 0.1953,0 0.3809,0.08789 0.5274,0.22461 l 1.3183,1.33789 z m 0.6641,-0.36133 c -0.0293,0.36133 -0.293,0.66406 -0.6641,0.66406 -0.3613,0 -0.6348,-0.30273 -0.6641,-0.66406 L 19.9883,8.44723 V 3.51558 c 0,-0.4785 0.3613,-0.8691 0.791,-0.8691 0.4297,0 0.8008,0.3906 0.8008,0.8691 v 4.93165 z" fill="currentColor"/>
    <path style="fill:#ffcc00;fill-opacity:0.666045" d="M 7.0764204,11.177666 5.1858005,8.5701945 2.1706666,9.4679378 4.0662854,6.8640985 2.2807532,4.2739537 5.3429299,5.2721637 7.2545442,2.7736228 7.2514547,5.9943899 10.21843,7.0403515 7.1543434,8.032685 Z" transform="matrix(0.43837483,0,0,0.47330723,2.4350229,6.0702021)"/>
    <path style="fill:#2651bf;fill-opacity:0.55597" d="M 7.1180844,11.382188 5.1790776,8.5676344 1.9890291,9.5707635 4.0666426,6.8569135 2.126831,4.132981 5.3498736,5.2702832 7.3410526,2.5836712 7.2553889,6.0004126 10.425817,7.0639276 7.1498312,8.0382878 Z" transform="matrix(0.41590983,0,0,0.4473435,9.3372094,8.2183821)"/>
    <path style="fill:#ffffff;fill-opacity:0.514925" d="M 7.0307336,11.393006 5.1486856,8.5556601 1.9517477,9.4910309 4.0686393,6.8243087 2.1911407,4.0728856 5.3814996,5.2621066 7.4180795,2.6262628 7.2729382,6.027964 10.409112,7.1503461 7.1290513,8.063492 Z" transform="matrix(0.31107313,0,0,0.32494307,3.205637,16.852121)"/>
    <path style="fill:#ffffff;fill-opacity:0.514925" d="M 6.832986,11.632081 5.0643051,8.5188603 1.6632668,9.3768398 4.0775629,6.7326863 2.2105973,3.763237 5.4713953,5.2422807 7.7185853,2.5490805 7.3195732,6.1073333 10.575379,7.4122934 7.0679776,8.1323709 Z" transform="matrix(0.29984062,0,0,0.31752486,11.006852,14.980102)"/>
    <path style="fill:#ffffff;fill-opacity:0.514925" d="M 6.6084492,11.657251 4.9912077,8.4825274 1.5699428,9.1710707 4.0895292,6.6519391 2.3774566,3.6108944 5.5518882,5.228709 7.915034,2.6606967 7.3573542,6.1796928 10.529931,7.6336186 7.0108346,8.1906631 Z" transform="matrix(0.26239894,0,0,0.28785203,8.9205793,3.3105181)"/>
    <path style="fill:#ff7e00;fill-opacity:0.492537" d="M 9.3072381,10.25145 6.0773284,8.6602798 3.7409102,11.303355 4.2561064,7.7398298 1.0203994,6.3345193 4.5687179,5.7233101 4.9053591,2.211705 6.5831443,5.3974824 10.026907,4.6325015 7.5155169,7.2126295 Z" transform="matrix(0.17354924,0.09685797,-0.09870721,0.17686268,3.2565562,1.5522608)"/>
    <path style="fill:#ffffff;fill-opacity:0.514925" d="M 6.9318376,11.416899 5.1133637,8.5409026 1.8984633,9.4043586 4.0717594,6.7861553 2.2571051,3.995426 5.4187499,5.253284 7.5121321,2.6650624 7.29284,6.0606648 10.401276,7.2517852 7.104101,8.0925248 Z" transform="matrix(0.19874809,0,0,0.20254264,14.043811,16.751893)"/>
    <path style="fill:#ffffff;fill-opacity:0.514925" d="M 7.1180841,11.532953 5.164516,8.5619797 1.845643,9.6173522 4.0675209,6.8413172 2.0382138,4.0110094 5.364978,5.2662989 7.4296702,2.4617 7.2638457,6.0135465 10.569203,7.1105168 7.1399534,8.0503892 Z" transform="matrix(0.41590983,0,0,0.4473435,17.868844,15.030201)"/>
  </g>
</symbol>

<symbol id="night-rise" viewBox="0 0 28.0566 25.6934">
  <g>
    <rect height="25.6934" opacity="0" width="28.0566" x="0" y="0"/>
    <path d="M2.1875 23.0273L25.5176 23.0273C25.9766 23.0273 26.3672 22.6758 26.3672 22.2461C26.3672 21.8164 25.9766 21.4648 25.5176 21.4648L2.1875 21.4648C1.71875 21.4648 1.33789 21.8164 1.33789 22.2461C1.33789 22.6758 1.71875 23.0273 2.1875 23.0273Z" fill="currentColor"/>
    <path d="m 20.7793,3.78906 1.4062,1.66016 1.2305,1.24023 c 0.1367,0.13672 0.332,0.22461 0.5176,0.22461 0.3906,0 0.6641,-0.27344 0.6641,-0.65429 0,-0.20508 -0.0684,-0.36133 -0.2344,-0.51758 L 21.3164,2.90039 C 21.1113,2.71484 20.9746,2.64648 20.7891,2.64648 c -0.1758,0 -0.3223,0.06836 -0.5274,0.25391 l -3.0469,2.8418 c -0.166,0.15625 -0.2343,0.3125 -0.2343,0.51758 0,0.38085 0.2734,0.65429 0.664,0.65429 0.1953,0 0.3809,-0.08789 0.5274,-0.22461 l 1.3183,-1.33789 z m 0.6641,0.36133 c -0.0293,-0.36133 -0.293,-0.66406 -0.6641,-0.66406 -0.3613,0 -0.6348,0.30273 -0.6641,0.66406 l -0.1269,1.94336 v 4.93165 c 0,0.4785 0.3613,0.8691 0.791,0.8691 0.4297,0 0.8008,-0.3906 0.8008,-0.8691 V 6.09375 Z" fill="currentColor"/>
    <path style="fill:#ffcc00;fill-opacity:0.666045" d="M 7.0764204,11.177666 5.1858005,8.5701945 2.1706666,9.4679378 4.0662854,6.8640985 2.2807532,4.2739537 5.3429299,5.2721637 7.2545442,2.7736228 7.2514547,5.9943899 10.21843,7.0403515 7.1543434,8.032685 Z" transform="matrix(0.43837483,0,0,0.47330723,2.4350229,6.0702021)"/>
    <path style="fill:#2651bf;fill-opacity:0.55597" d="M 7.1180844,11.382188 5.1790776,8.5676344 1.9890291,9.5707635 4.0666426,6.8569135 2.126831,4.132981 5.3498736,5.2702832 7.3410526,2.5836712 7.2553889,6.0004126 10.425817,7.0639276 7.1498312,8.0382878 Z" transform="matrix(0.41590983,0,0,0.4473435,9.3372094,8.2183821)"/>
    <path style="fill:#ffffff;fill-opacity:0.514925" d="M 7.0307336,11.393006 5.1486856,8.5556601 1.9517477,9.4910309 4.0686393,6.8243087 2.1911407,4.0728856 5.3814996,5.2621066 7.4180795,2.6262628 7.2729382,6.027964 10.409112,7.1503461 7.1290513,8.063492 Z" transform="matrix(0.31107313,0,0,0.32494307,3.205637,16.852121)"/>
    <path style="fill:#ffffff;fill-opacity:0.514925" d="M 6.832986,11.632081 5.0643051,8.5188603 1.6632668,9.3768398 4.0775629,6.7326863 2.2105973,3.763237 5.4713953,5.2422807 7.7185853,2.5490805 7.3195732,6.1073333 10.575379,7.4122934 7.0679776,8.1323709 Z" transform="matrix(0.29984062,0,0,0.31752486,11.006852,14.980102)"/>
    <path style="fill:#ffffff;fill-opacity:0.514925" d="M 6.6084492,11.657251 4.9912077,8.4825274 1.5699428,9.1710707 4.0895292,6.6519391 2.3774566,3.6108944 5.5518882,5.228709 7.915034,2.6606967 7.3573542,6.1796928 10.529931,7.6336186 7.0108346,8.1906631 Z" transform="matrix(0.26239894,0,0,0.28785203,8.9205793,3.3105181)"/>
    <path style="fill:#ff7e00;fill-opacity:0.492537" d="M 9.3072381,10.25145 6.0773284,8.6602798 3.7409102,11.303355 4.2561064,7.7398298 1.0203994,6.3345193 4.5687179,5.7233101 4.9053591,2.211705 6.5831443,5.3974824 10.026907,4.6325015 7.5155169,7.2126295 Z" transform="matrix(0.17354924,0.09685797,-0.09870721,0.17686268,3.2565562,1.5522608)"/>
    <path style="fill:#ffffff;fill-opacity:0.514925" d="M 6.9318376,11.416899 5.1133637,8.5409026 1.8984633,9.4043586 4.0717594,6.7861553 2.2571051,3.995426 5.4187499,5.253284 7.5121321,2.6650624 7.29284,6.0606648 10.401276,7.2517852 7.104101,8.0925248 Z" transform="matrix(0.19874809,0,0,0.20254264,14.043811,16.751893)"/>
    <path style="fill:#ffffff;fill-opacity:0.514925" d="M 7.1180841,11.532953 5.164516,8.5619797 1.845643,9.6173522 4.0675209,6.8413172 2.0382138,4.0110094 5.364978,5.2662989 7.4296702,2.4617 7.2638457,6.0135465 10.569203,7.1105168 7.1399534,8.0503892 Z" transform="matrix(0.41590983,0,0,0.4473435,17.868844,15.030201)"/>
  </g>
</symbol>

<!-- Bortle scale filter icons -->
<symbol id="bortle-all" viewBox="0 0 24 24">
  <rect x="4" y="4" width="16" height="16" rx="2" fill="currentColor"/>
</symbol>

<symbol id="bortle-3dots" viewBox="0 0 24 24">
  <circle cx="6" cy="12" r="2" fill="currentColor"/>
  <circle cx="12" cy="12" r="2" fill="currentColor"/>
  <circle cx="18" cy="12" r="2" fill="currentColor"/>
</symbol>

<symbol id="bortle-2dots" viewBox="0 0 24 24">
  <circle cx="8" cy="12" r="2" fill="currentColor"/>
  <circle cx="16" cy="12" r="2" fill="currentColor"/>
</symbol>

<symbol id="bortle-1dot" viewBox="0 0 24 24">
  <circle cx="12" cy="12" r="2" fill="currentColor"/>
</symbol>

<!-- View toggle icons -->
<symbol id="clock-view" viewBox="0 0 24 24">
  <circle cx="12" cy="12" r="10" stroke="currentColor" stroke-width="2" fill="none"/>
  <path d="M12 6v6l4 2" stroke="currentColor" stroke-width="2" stroke-linecap="round" stroke-linejoin="round"/>
</symbol>

<symbol id="list-view" viewBox="0 0 24 24">
  <line x1="8" y1="6" x2="21" y2="6" stroke="currentColor" stroke-width="2" stroke-linecap="round"/>
  <line x1="8" y1="12" x2="21" y2="12" stroke="currentColor" stroke-width="2" stroke-linecap="round"/>
  <line x1="8" y1="18" x2="21" y2="18" stroke="currentColor" stroke-width="2" stroke-linecap="round"/>
  <line x1="3" y1="6" x2="3.01" y2="6" stroke="currentColor" stroke-width="2" stroke-linecap="round"/>
  <line x1="3" y1="12" x2="3.01" y2="12" stroke="currentColor" stroke-width="2" stroke-linecap="round"/>
  <line x1="3" y1="18" x2="3.01" y2="18" stroke="currentColor" stroke-width="2" stroke-linecap="round"/>
</symbol>

</defs>

</svg>
